P2
10 5
255
132 243 139 54  209 212 120 76  127 167 
99  242 20  252 122 113 88  206 47  156 
13  169 11  246 52  102 61  224 207 143 
37  83  130 177 137 84  133 2   160 4   
169 3   246 189 0   112 46  88  63  93  
