P3
20 20
255
118 179 160 82  170 72  146 31  123 127 46  124 116 167 60  204 142 152 177 120 89  231 54  51  50  22  201 168 91  170 22  209 93  183 35  8   255 181 39  123 52  85  247 168 253 51  116 139 204 37  4   37  13  58  88  63  80  34  231 171 
204 253 124 42  180 159 50  180 84  89  47  136 175 38  49  172 90  165 55  38  203 59  75  216 118 164 23  198 198 254 114 146 251 238 188 176 142 238 100 226 72  147 107 247 185 156 163 19  65  218 57  12  22  133 228 140 41  251 82  239 
249 196 129 245 179 62  165 65  44  9   35  116 156 142 107 85  42  14  105 108 233 162 120 255 39  93  139 80  88  221 63  82  162 193 71  85  255 236 150 43  245 185 160 145 72  11  230 114 26  79  222 3   242 87  2   25  180 141 106 12  
106 169 94  12  106 165 97  105 145 247 149 134 177 53  23  249 64  254 107 90  77  74  93  63  161 95  89  85  236 195 97  87  108 192 99  215 101 197 64  247 188 213 125 109 10  149 102 75  147 210 165 224 28  3   32  189 98  121 18  79  
60  115 166 168 51  9   127 153 206 192 144 139 149 13  248 160 162 95  235 53  49  144 22  77  147 54  10  246 175 28  69  235 143 235 147 195 244 19  92  195 211 236 78  104 249 70  8   156 165 243 209 214 132 231 35  23  29  45  13  204 
73  82  183 217 61  75  156 50  94  248 245 49  228 67  153 221 137 162 121 47  149 75  5   25  50  41  49  80  86  62  28  160 145 212 121 206 31  21  0   125 13  245 174 241 56  71  206 194 233 72  241 127 147 246 152 197 31  201 21  118 
8   50  22  153 6   143 103 37  164 104 162 177 93  80  162 150 151 112 88  129 184 73  0   75  63  152 17  95  98  38  213 106 88  235 3   94  122 106 131 30  210 37  207 48  117 113 198 13  225 30  142 154 103 142 229 166 38  246 5   136 
29  218 242 117 197 245 212 63  96  87  93  50  125 44  98  242 157 40  255 127 70  141 25  173 27  254 84  66  245 89  202 18  52  189 135 249 178 91  57  18  179 150 69  48  195 167 34  96  208 34  223 22  175 248 196 203 247 24  13  236 
113 215 254 165 148 133 159 71  225 216 89  148 110 158 196 49  70  230 146 22  8   113 44  184 106 240 131 97  8   144 77  122 103 75  31  252 208 190 67  177 150 156 69  5   59  9   54  129 240 200 151 248 58  195 176 164 180 51  5   188 
195 82  54  43  157 86  39  109 20  106 31  171 6   100 176 65  110 230 194 94  175 89  86  233 29  7   141 209 58  146 141 254 228 196 41  129 26  80  238 46  186 13  217 192 114 137 2   224 112 196 62  31  30  148 8   59  155 149 12  214 
39  153 212 11  93  253 140 119 77  122 166 7   136 127 199 250 9   201 218 121 142 24  152 172 172 160 231 72  53  243 30  92  140 242 103 234 239 243 97  60  109 7   67  245 135 10  239 144 212 201 9   98  225 161 14  142 65  245 214 118 
232 244 210 116 230 57  94  213 44  192 17  153 199 84  143 78  94  126 222 50  72  231 148 41  136 162 183 201 151 141 63  127 129 17  244 103 74  82  60  118 18  77  16  218 161 159 40  0   29  7   50  101 238 199 143 119 105 70  64  1   
212 128 128 85  145 116 189 220 199 249 82  217 71  98  179 232 1   220 232 31  227 27  132 209 226 19  72  75  90  137 76  46  9   205 131 154 65  64  118 8   58  201 226 129 43  149 105 45  113 82  76  84  109 208 38  79  228 110 154 62  
247 231 108 0   180 239 155 245 48  17  254 106 218 224 235 6   117 84  51  231 166 127 59  19  79  97  98  51  208 253 113 199 228 221 200 152 205 99  141 253 116 139 103 79  107 82  85  225 166 136 200 77  7   3   96  86  101 195 138 53  
192 251 252 164 217 196 60  166 39  201 163 156 85  10  235 192 92  64  161 2   200 105 79  207 109 176 37  210 115 175 7   51  171 3   215 132 200 19  42  239 220 205 139 49  215 118 242 51  182 147 53  126 253 133 77  106 53  115 60  168 
34  67  219 205 70  178 81  14  197 123 254 161 72  137 211 31  0   197 82  182 88  136 53  85  13  130 191 66  245 251 234 24  62  197 229 133 119 55  147 60  178 145 221 251 27  176 26  27  117 109 209 206 245 6   35  2   137 227 68  126 
222 46  150 29  243 124 162 106 179 53  166 101 199 131 96  226 52  123 253 169 232 206 119 221 213 155 223 94  126 35  220 92  81  115 121 68  239 27  174 162 81  84  7   24  215 104 250 11  227 247 181 203 197 44  168 154 199 135 248 69  
170 213 162 251 72  27  63  55  55  237 217 136 65  224 160 24  72  154 36  43  145 217 246 86  5   158 241 205 37  233 18  207 190 180 202 6   208 9   61  7   246 22  143 55  247 47  80  63  201 116 107 90  77  97  176 82  0   161 31  37  
139 50  245 73  230 191 80  182 201 141 189 191 164 76  247 155 123 71  218 68  187 69  158 8   167 79  90  167 240 122 204 123 172 193 197 146 129 21  73  74  162 6   9   70  83  0   225 206 71  188 19  2   1   177 10  168 0   101 79  241 
223 28  108 139 221 49  29  94  70  102 168 233 109 178 47  192 178 17  142 250 205 161 252 206 83  7   119 83  108 198 68  75  226 177 214 192 226 243 30  41  90  199 18  199 121 65  135 43  82  21  37  31  183 34  238 10  41  101 93  149 
